<svg width="70" height="70" viewBox="0 0 70 70" fill="none" xmlns="http://www.w3.org/2000/svg">
<path d="M35.457 7.42676C29.913 7.42676 24.4934 9.07076 19.8837 12.1509C15.274 15.231 11.6812 19.6089 9.55955 24.7309C7.43793 29.853 6.88281 35.4891 7.96441 40.9266C9.046 46.3642 11.7157 51.3589 15.636 55.2791C19.5562 59.1993 24.5509 61.8691 29.9884 62.9506C35.4259 64.0322 41.0621 63.4771 46.1841 61.3555C51.3062 59.2339 55.6841 55.641 58.7642 51.0313C61.8443 46.4216 63.4883 41.0021 63.4883 35.458C63.4799 28.0262 60.5239 20.9012 55.2689 15.6462C50.0138 10.3911 42.8888 7.43515 35.457 7.42676V7.42676ZM33.3008 22.5205C33.3008 21.9486 33.528 21.4002 33.9323 20.9958C34.3367 20.5914 34.8852 20.3643 35.457 20.3643C36.0289 20.3643 36.5774 20.5914 36.9817 20.9958C37.3861 21.4002 37.6133 21.9486 37.6133 22.5205V37.6143C37.6133 38.1861 37.3861 38.7346 36.9817 39.139C36.5774 39.5433 36.0289 39.7705 35.457 39.7705C34.8852 39.7705 34.3367 39.5433 33.9323 39.139C33.528 38.7346 33.3008 38.1861 33.3008 37.6143V22.5205ZM35.457 50.5518C34.8173 50.5518 34.192 50.3621 33.6601 50.0067C33.1282 49.6513 32.7137 49.1461 32.4689 48.5551C32.2241 47.9641 32.16 47.3138 32.2848 46.6864C32.4096 46.059 32.7177 45.4827 33.17 45.0303C33.6223 44.578 34.1986 44.27 34.826 44.1452C35.4535 44.0204 36.1038 44.0844 36.6948 44.3292C37.2858 44.574 37.7909 44.9886 38.1463 45.5205C38.5017 46.0524 38.6914 46.6777 38.6914 47.3174C38.6914 48.1752 38.3507 48.9979 37.7441 49.6044C37.1375 50.211 36.3149 50.5518 35.457 50.5518Z" fill="#A4251A"/>
</svg>
