<svg width="24" height="24" viewBox="0 0 24 24" fill="none" xmlns="http://www.w3.org/2000/svg">
<path d="M0.76529 7.66946C0.255097 7.66946 0 7.40586 0 6.87866V3.65272C0 2.43933 0.309462 1.5272 0.928385 0.916318C1.54731 0.305439 2.46733 0 3.68845 0H6.9127C7.43962 0 7.70308 0.25523 7.70308 0.76569C7.70308 1.28452 7.43962 1.54393 6.9127 1.54393H3.72608C3.01516 1.54393 2.47151 1.72803 2.09514 2.09623C1.72713 2.46444 1.54313 3.01255 1.54313 3.74059V6.87866C1.54313 7.40586 1.28385 7.66946 0.76529 7.66946ZM23.2222 7.66946C22.712 7.66946 22.4569 7.40586 22.4569 6.87866V3.74059C22.4569 3.01255 22.2645 2.46444 21.8798 2.09623C21.495 1.72803 20.9556 1.54393 20.2614 1.54393H17.0873C16.5604 1.54393 16.2969 1.28452 16.2969 0.76569C16.2969 0.25523 16.5604 0 17.0873 0H20.299C21.5285 0 22.4527 0.309623 23.0716 0.92887C23.6905 1.53975 24 2.4477 24 3.65272V6.87866C24 7.40586 23.7407 7.66946 23.2222 7.66946ZM3.68845 24C2.46733 24 1.54731 23.6904 0.928385 23.0711C0.309462 22.4603 0 21.5481 0 20.3347V17.1213C0 16.5941 0.255097 16.3305 0.76529 16.3305C1.28385 16.3305 1.54313 16.5941 1.54313 17.1213V20.2594C1.54313 20.9874 1.72713 21.5356 2.09514 21.9038C2.47151 22.272 3.01516 22.4561 3.72608 22.4561H6.9127C7.43962 22.4561 7.70308 22.7155 7.70308 23.2343C7.70308 23.7448 7.43962 24 6.9127 24H3.68845ZM17.0873 24C16.5604 24 16.2969 23.7448 16.2969 23.2343C16.2969 22.7155 16.5604 22.4561 17.0873 22.4561H20.2614C20.9556 22.4561 21.495 22.272 21.8798 21.9038C22.2645 21.5356 22.4569 20.9874 22.4569 20.2594V17.1213C22.4569 16.5941 22.712 16.3305 23.2222 16.3305C23.7407 16.3305 24 16.5941 24 17.1213V20.3347C24 21.5481 23.6905 22.4603 23.0716 23.0711C22.4527 23.6904 21.5285 24 20.299 24H17.0873ZM7.33926 10.9958C7.09671 10.9958 6.89597 10.9205 6.73706 10.7699C6.58651 10.6192 6.51124 10.4142 6.51124 10.1548V8.46025C6.51124 8.20921 6.58651 8.00837 6.73706 7.85774C6.89597 7.69874 7.09671 7.61925 7.33926 7.61925C7.58181 7.61925 7.78254 7.69874 7.94145 7.85774C8.10037 8.00837 8.17982 8.20921 8.17982 8.46025V10.1548C8.17982 10.4142 8.10037 10.6192 7.94145 10.7699C7.78254 10.9205 7.58181 10.9958 7.33926 10.9958ZM10.9775 13.9331C10.7182 13.9331 10.5175 13.8745 10.3753 13.7573C10.2331 13.6318 10.162 13.4644 10.162 13.2552C10.162 13.0711 10.2206 12.9205 10.3377 12.8033C10.4631 12.6778 10.6179 12.6151 10.8019 12.6151H11.2284C11.3204 12.6151 11.3999 12.5858 11.4668 12.5272C11.5421 12.4686 11.5797 12.3808 11.5797 12.2636V8.24686C11.5797 8.04603 11.6383 7.89121 11.7554 7.78243C11.8725 7.66527 12.0272 7.60669 12.2196 7.60669C12.4203 7.60669 12.5792 7.66527 12.6963 7.78243C12.8134 7.89121 12.8719 8.04603 12.8719 8.24686V12.1506C12.8719 12.7364 12.7214 13.1799 12.4203 13.4812C12.1192 13.7824 11.6759 13.9331 11.0904 13.9331C11.0737 13.9331 11.0528 13.9331 11.0277 13.9331C11.011 13.9331 10.9942 13.9331 10.9775 13.9331ZM16.5855 10.9958C16.3346 10.9958 16.1338 10.9205 15.9833 10.7699C15.8327 10.6192 15.7574 10.4142 15.7574 10.1548V8.46025C15.7574 8.20921 15.8327 8.00837 15.9833 7.85774C16.1338 7.69874 16.3346 7.61925 16.5855 7.61925C16.828 7.61925 17.0246 7.69874 17.1751 7.85774C17.334 8.00837 17.4135 8.20921 17.4135 8.46025V10.1548C17.4135 10.4142 17.334 10.6192 17.1751 10.7699C17.0246 10.9205 16.828 10.9958 16.5855 10.9958ZM11.9059 17.9874C11.1783 17.9874 10.459 17.8452 9.74804 17.5607C9.03711 17.2678 8.43492 16.8452 7.94145 16.2929C7.87454 16.2259 7.82018 16.1548 7.77836 16.0795C7.7449 15.9958 7.72818 15.9079 7.72818 15.8159C7.72818 15.6234 7.7909 15.4686 7.91636 15.3515C8.04182 15.2343 8.19655 15.1757 8.38055 15.1757C8.49765 15.1757 8.59383 15.2008 8.66911 15.251C8.75274 15.3013 8.84056 15.3682 8.93257 15.4519C9.30057 15.8285 9.75222 16.1297 10.2875 16.3556C10.8228 16.5816 11.3623 16.6946 11.9059 16.6946C12.483 16.6946 13.035 16.5816 13.5619 16.3556C14.0972 16.1213 14.5447 15.8201 14.9043 15.4519C15.08 15.2678 15.2598 15.1757 15.4438 15.1757C15.6194 15.1757 15.77 15.2343 15.8955 15.3515C16.0209 15.4686 16.0836 15.6234 16.0836 15.8159C16.0836 15.9247 16.0669 16.0209 16.0335 16.1046C16 16.1799 15.954 16.2469 15.8955 16.3054C15.3602 16.8326 14.7412 17.2469 14.0387 17.5481C13.3445 17.841 12.6336 17.9874 11.9059 17.9874Z" fill="#0C3687"/>
</svg>
