<svg width="23" height="23" viewBox="0 0 23 23" fill="none" xmlns="http://www.w3.org/2000/svg">
<path d="M21.6058 7.77266C21.1628 6.51342 20.5601 5.45546 19.9059 4.80519C19.772 4.67101 19.5969 4.59876 19.4063 4.59876C19.2157 4.59876 19.0406 4.67101 18.9066 4.80519C18.6336 5.07872 18.6336 5.52771 18.9066 5.80639C19.4166 6.31731 19.9162 7.22045 20.2871 8.28874C20.6632 9.38283 20.8743 10.5388 20.8743 11.5452C20.8743 11.7 20.8692 11.9374 20.864 12.0664C20.8537 12.2574 20.9207 12.4329 21.0495 12.5722C21.1783 12.7115 21.3482 12.7941 21.5388 12.7993H21.5697C21.9458 12.7993 22.2548 12.5051 22.2754 12.1232C22.2806 11.9632 22.2857 11.7052 22.2857 11.54C22.2857 10.3634 22.0436 9.02157 21.6058 7.77266ZM5.75072 4.08784C5.9001 4.08784 6.03918 4.04139 6.16281 3.95366C7.70299 2.84925 9.57284 2.26608 11.5715 2.26608C13.6731 2.26608 15.6975 3.02988 17.4283 4.4749C17.557 4.57812 17.7167 4.64005 17.8816 4.64005C18.0928 4.64005 18.2885 4.54715 18.4224 4.38717C18.6697 4.08784 18.6285 3.64401 18.3349 3.39113C16.3414 1.73451 14.0079 0.857178 11.5715 0.857178C9.27407 0.857178 7.12091 1.53324 5.33863 2.80796C5.1841 2.91634 5.08623 3.08148 5.05532 3.26727C5.02442 3.45306 5.06563 3.63885 5.17895 3.79368C5.30773 3.97946 5.52407 4.08784 5.75072 4.08784ZM2.26858 11.54C2.26858 9.28477 3.08245 7.11207 4.56082 5.41417C4.68444 5.26967 4.74626 5.08904 4.7308 4.90325C4.7205 4.71746 4.63293 4.54199 4.4887 4.41813C4.35993 4.3046 4.19509 4.24267 4.0251 4.24267C3.81906 4.24267 3.62847 4.3304 3.49454 4.48522C1.79468 6.44117 0.857178 8.94416 0.857178 11.54C0.857178 13.2328 1.16109 14.5746 1.65045 16.1951C1.74317 16.4944 2.01102 16.6957 2.32524 16.6957C2.39221 16.6957 2.46432 16.6854 2.53128 16.6647C2.71157 16.608 2.86096 16.4893 2.94852 16.3241C3.03609 16.159 3.0567 15.968 3.00003 15.7874C2.54674 14.2908 2.26858 13.0625 2.26858 11.54Z" fill="#0C3687"/>
<path d="M16.6595 5.134C15.2651 3.91989 13.5592 3.27954 11.7205 3.27954C9.25363 3.27954 7.05231 4.1914 5.51496 5.84607C4.04912 7.4239 3.32897 9.51913 3.4873 11.7424C3.60477 13.4176 3.79375 14.3397 3.96229 15.1542C4.18191 16.2351 4.35557 17.0907 4.22277 19.4625C4.20234 19.8057 4.41175 20.1131 4.73352 20.2104C4.79481 20.2309 4.85099 20.2361 4.91739 20.2361C5.28513 20.2361 5.59158 19.9441 5.61711 19.5752C5.76523 16.9933 5.57625 16.0558 5.3362 14.8674C5.17787 14.0938 4.99911 13.2178 4.88675 11.6349C4.75395 9.80601 5.34642 8.08474 6.54157 6.79379C7.80822 5.426 9.65202 4.67295 11.7205 4.67295C13.217 4.67295 14.6063 5.19547 15.7401 6.18418C16.8791 7.17288 17.7423 8.61239 18.2428 10.3388C18.825 12.352 18.9834 14.9135 18.7076 17.7413C18.6718 18.1255 18.9527 18.4687 19.3358 18.5097C19.3562 18.5097 19.3818 18.5148 19.4022 18.5148C19.7648 18.5148 20.061 18.2433 20.0968 17.8796C20.393 14.8725 20.2143 12.1318 19.5809 9.94945C19.014 7.97204 18.0027 6.302 16.6595 5.134Z" fill="#0C3687"/>
<path d="M17.623 12.1232C17.3184 10.186 16.5955 8.56902 15.5266 7.44284C14.4526 6.30632 13.0791 5.7019 11.5558 5.7019C10.5747 5.7019 9.60913 5.91371 8.7623 6.32182C8.57125 6.41481 8.43183 6.58529 8.3802 6.79192C8.32856 7.00373 8.37503 7.2207 8.50929 7.39118C8.64354 7.56682 8.84492 7.66497 9.06696 7.66497C9.17539 7.66497 9.2735 7.63914 9.37161 7.59782C10.0222 7.28786 10.7761 7.12255 11.5506 7.12255C12.7073 7.12255 13.7452 7.59782 14.561 8.4967C15.3924 9.41624 15.9707 10.7491 16.2185 12.3505C16.4612 13.8796 16.58 15.1143 16.5852 16.1268C16.5955 18.1777 16.3373 19.8825 16.3373 19.9032C16.3063 20.0891 16.3528 20.2751 16.4664 20.4301C16.58 20.5851 16.7401 20.6832 16.926 20.7142C16.9621 20.7194 16.9982 20.7245 17.0344 20.7245C17.3855 20.7245 17.6798 20.4714 17.7315 20.1253C17.7418 20.053 18.0103 18.3069 18 16.1217C18 15.0213 17.8761 13.7195 17.623 12.1232ZM7.90515 8.81699C8.11169 8.51736 8.05489 8.11441 7.77606 7.87678C7.64697 7.76829 7.48689 7.71147 7.32166 7.71147C7.0893 7.71147 6.87243 7.82512 6.73817 8.01626C5.97912 9.12694 5.72094 10.5528 5.99462 12.1387C6.45418 14.7888 6.86726 17.8781 6.47999 20.6626C6.45418 20.8589 6.50581 21.0603 6.62974 21.2153C6.7485 21.3703 6.92406 21.4633 7.11512 21.4788C7.13577 21.4788 7.15642 21.4839 7.17708 21.4839C7.5282 21.4839 7.82769 21.2205 7.87416 20.8744C8.29758 17.8936 7.86384 14.6649 7.38362 11.8959C7.17192 10.6664 7.34748 9.62804 7.90515 8.81699ZM14.7314 18.3482H14.7056C14.3132 18.3637 14.0085 18.6892 14.024 19.0818C14.024 19.0921 14.055 20.0065 13.8898 20.8744C13.8226 21.2308 14.024 21.5821 14.3596 21.6906C14.4319 21.7113 14.5042 21.7267 14.5817 21.7267C14.9225 21.7267 15.2116 21.4839 15.2736 21.1533C15.4698 20.115 15.4337 19.0766 15.4337 19.0301C15.4233 18.6427 15.1135 18.3482 14.7314 18.3482Z" fill="#0C3687"/>
<path d="M13.5085 8.953C12.9324 8.41252 12.2122 8.12427 11.4251 8.12427C10.4066 8.12427 9.53721 8.50003 8.9765 9.17948C8.54953 9.69937 8.10199 10.6619 8.41578 12.2679C9.04852 15.485 9.18741 18.5271 8.83246 21.3067C8.78102 21.6928 9.0588 22.048 9.43947 22.0943C9.47034 22.0994 9.5012 22.0994 9.52692 22.0994C9.88187 22.0994 10.1802 21.8369 10.2265 21.4817C10.6021 18.5477 10.458 15.3563 9.79957 11.99C9.63495 11.1458 9.72755 10.4818 10.0619 10.07C10.35 9.71996 10.8335 9.5295 11.42 9.5295C12.706 9.5295 13.2256 10.9502 13.3902 11.5576C13.7451 12.8805 13.9509 14.8004 13.9818 17.1013C13.9869 17.4822 14.3007 17.7962 14.6865 17.7962H14.6968C14.882 17.7911 15.0569 17.719 15.1907 17.5852C15.3193 17.4513 15.3913 17.2712 15.3913 17.0859C15.3553 14.6666 15.1341 12.6334 14.7483 11.1973C14.4962 10.245 14.0744 9.48832 13.5085 8.953Z" fill="#0C3687"/>
<path d="M12.075 10.9872C11.968 10.7228 11.7133 10.5466 11.4281 10.5466C11.3364 10.5466 11.2447 10.5674 11.1632 10.5985C10.8066 10.7488 10.6385 11.1634 10.7862 11.5262C11.1224 12.3554 11.3873 13.9207 11.5045 15.8176C11.6267 17.73 11.5911 19.8032 11.4026 21.498C11.3822 21.6846 11.4332 21.8711 11.5503 22.0214C11.6675 22.1717 11.8305 22.2598 12.019 22.2806C12.0444 22.2858 12.0699 22.2858 12.0954 22.2858C12.452 22.2858 12.7474 22.0163 12.7882 21.6535C12.9869 19.8135 13.0225 17.6834 12.8901 15.6517C12.7627 13.6149 12.4724 11.9564 12.075 10.9872Z" fill="#0C3687"/>
</svg>
