<svg width="72" height="72" viewBox="0 0 72 72" fill="none" xmlns="http://www.w3.org/2000/svg">
<rect x="18.3262" width="56" height="56" rx="28" transform="rotate(19.1029 18.3262 0)" fill="#36743D"/>
<path d="M32.4273 46.1772L27.7099 46.2511C26.9181 46.2635 26.2677 45.6273 26.2613 44.8342L26.1923 36.2628C26.1861 35.4781 26.8129 34.8352 27.5963 34.8229L32.2484 34.7501M32.4273 46.1772L42.2424 46.0236C42.9109 46.0131 43.4823 45.5392 43.6171 44.8834L46.0693 34.6239C46.2533 33.7288 45.5623 32.893 44.6499 32.9073L40.6699 32.9696C39.7713 32.9837 39.0561 32.3922 39.2164 31.5065L39.894 27.7636C40.0544 26.8779 39.3668 26.0661 38.4683 26.0802L38.1879 26.0846C37.6807 26.0925 37.2159 26.3698 36.9672 26.8125L32.2484 34.7501M32.4273 46.1772L32.2484 34.7501" stroke="#F1FEF1" stroke-width="3"/>
</svg>
